<svg xmlns="http://www.w3.org/2000/svg" width="29" height="29" viewBox="0 0 29 29"><defs><style>.a{fill:#c91f25;}</style></defs><circle class="a" cx="1" cy="1" r="1" transform="translate(21 11)"/><path class="a" d="M24.469,2.266H23V1.133a1.133,1.133,0,0,0-2.266,0V2.266H15.576V1.133a1.133,1.133,0,0,0-2.266,0V2.266h-5.1V1.133a1.133,1.133,0,0,0-2.266,0V2.266H4.531A4.536,4.536,0,0,0,0,6.8V24.469A4.536,4.536,0,0,0,4.531,29H13.2a1.133,1.133,0,0,0,0-2.266H4.531a2.268,2.268,0,0,1-2.266-2.266V6.8A2.268,2.268,0,0,1,4.531,4.531H5.947V5.664a1.133,1.133,0,0,0,2.266,0V4.531h5.1V5.664a1.133,1.133,0,0,0,2.266,0V4.531H20.73V5.664a1.133,1.133,0,0,0,2.266,0V4.531h1.473A2.268,2.268,0,0,1,26.734,6.8v6.457a1.133,1.133,0,0,0,2.266,0V6.8A4.536,4.536,0,0,0,24.469,2.266Z"/><path class="a" d="M276.854,270a6.854,6.854,0,1,0,6.854,6.854A6.861,6.861,0,0,0,276.854,270Zm0,11.441a4.588,4.588,0,1,1,4.588-4.588A4.593,4.593,0,0,1,276.854,281.441Z" transform="translate(-254.707 -254.707)"/><path class="a" d="M373.775,332.322h-.51v-1.189a1.133,1.133,0,0,0-2.266,0v2.322a1.133,1.133,0,0,0,1.133,1.133h1.643a1.133,1.133,0,0,0,0-2.266Z" transform="translate(-349.986 -311.309)"/><circle class="a" cx="1" cy="1" r="1" transform="translate(16 11)"/><circle class="a" cx="1" cy="1" r="1" transform="translate(11 16)"/><circle class="a" cx="1" cy="1" r="1" transform="translate(6 11)"/><circle class="a" cx="1" cy="1" r="1" transform="translate(6 16)"/><circle class="a" cx="1" cy="1" r="1" transform="translate(6 21)"/><circle class="a" cx="1" cy="1" r="1" transform="translate(11 21)"/><circle class="a" cx="1" cy="1" r="1" transform="translate(11 11)"/></svg>