<svg xmlns="http://www.w3.org/2000/svg" width="19.733" height="24.34" viewBox="0 0 19.733 24.34">
  <g id="Component_8_1" data-name="Component 8 – 1" transform="translate(0 1)">
    <g id="Group_1697" data-name="Group 1697" transform="translate(12.595)">
      <line id="Line_165" data-name="Line 165" y2="6.137" transform="translate(3.069)" fill="none" stroke="#fff" stroke-linecap="round" stroke-width="2"/>
      <line id="Line_166" data-name="Line 166" y2="6.137" transform="translate(6.137 3.069) rotate(90)" fill="none" stroke="#fff" stroke-linecap="round" stroke-width="2"/>
    </g>
    <g id="Group_1701" data-name="Group 1701" transform="translate(0 4.603)">
      <g id="Rectangle_17" data-name="Rectangle 17" transform="translate(2.903 0)" fill="none" stroke="#fff" stroke-width="2">
        <rect width="8.708" height="8.708" rx="4.354" stroke="none"/>
        <rect x="1" y="1" width="6.708" height="6.708" rx="3.354" fill="none"/>
      </g>
      <g id="Path_7" data-name="Path 7" transform="translate(0 10.885)" fill="none">
        <path d="M3.628,0h7.256a3.628,3.628,0,0,1,3.628,3.628C14.513,9.26,0,9.26,0,3.628A3.628,3.628,0,0,1,3.628,0Z" stroke="none"/>
        <path d="M 3.628235816955566 2.000001430511475 C 2.730425834655762 2.000001430511475 1.999995231628418 2.73042106628418 1.999995231628418 3.628231048583984 C 1.999995231628418 3.820571422576904 1.999995231628418 4.405901432037354 3.186745643615723 5.019961357116699 C 4.209005355834961 5.548901557922363 5.692365646362305 5.85227108001709 7.256465435028076 5.85227108001709 C 8.820565223693848 5.85227108001709 10.30391502380371 5.548901557922363 11.32617568969727 5.019961357116699 C 11.75887489318848 4.79607105255127 12.09234523773193 4.538341045379639 12.29054546356201 4.274631023406982 C 12.44434547424316 4.069991111755371 12.51293563842773 3.870631217956543 12.51293563842773 3.628231048583984 C 12.51293563842773 2.73042106628418 11.78250503540039 2.000001430511475 10.88469505310059 2.000001430511475 L 3.628235816955566 2.000001430511475 M 3.628235816955566 9.5367431640625e-07 L 10.88469505310059 9.5367431640625e-07 C 12.88851547241211 9.5367431640625e-07 14.51293563842773 1.624411106109619 14.51293563842773 3.628231048583984 C 14.51293563842773 6.44425630569458 10.88470077514648 7.852268695831299 7.256465435028076 7.852268695831299 C 3.628230094909668 7.852268695831299 -4.76837158203125e-06 6.44425630569458 -4.76837158203125e-06 3.628231048583984 C -4.76837158203125e-06 1.624411106109619 1.624415397644043 9.5367431640625e-07 3.628235816955566 9.5367431640625e-07 Z" stroke="none" fill="#fff"/>
      </g>
    </g>
  </g>
</svg>
