<svg xmlns="http://www.w3.org/2000/svg" width="22.396" height="22.394" viewBox="0 0 22.396 22.394"><defs><style>.a{fill:#aaa;stroke:#aaa;stroke-width:0.5px;}</style></defs><g transform="translate(0.286 0.284)"><g transform="translate(0 0)"><path class="a" d="M21.4,3.644H8.468L7.63.871A1.233,1.233,0,0,0,6.1.051L4.248.6a1.239,1.239,0,0,0-.538.326L1.619,3.089a1.227,1.227,0,0,0-.313.591A18.916,18.916,0,0,0,1.9,12.843a19.112,19.112,0,0,0,4.587,7.984,1.235,1.235,0,0,0,.588.322l2.948.68a1.235,1.235,0,0,0,.278.032,1.25,1.25,0,0,0,.351-.051l1.027-.3.827-.244a1.217,1.217,0,0,0,.735-.593,1.2,1.2,0,0,0,.094-.927l-.462-1.526H21.4a1.457,1.457,0,0,0,1.457-1.457V5.1A1.457,1.457,0,0,0,21.4,3.644Zm-5.738,7.177,6.422-5.963a.715.715,0,0,1,.045.243V16.759a.725.725,0,0,1-.04.229ZM21.4,4.372a.724.724,0,0,1,.123.012L13.9,11.465a.729.729,0,0,1-.991,0L7.659,6.608l.387-.114A1.221,1.221,0,0,0,8.78,5.9a1.2,1.2,0,0,0,.094-.926l-.183-.6ZM6.732,15.022A8.866,8.866,0,0,1,5.087,11.9,8.214,8.214,0,0,1,4.9,7.446a.065.065,0,0,1,.045-.04l1.9-.559,4.279,3.959Zm5.866,5.3a.494.494,0,0,1-.3.24l-.483.142-.887-2.936a.364.364,0,1,0-.7.211l.887,2.931-.673.2a.51.51,0,0,1-.26.008l-2.948-.68A.51.51,0,0,1,7,20.306a18.347,18.347,0,0,1-4.4-7.673,18.18,18.18,0,0,1-.579-8.8.5.5,0,0,1,.128-.24L4.233,1.43A.506.506,0,0,1,4.452,1.3l.678-.2.887,2.935a.364.364,0,0,0,.349.259.35.35,0,0,0,.105-.016.364.364,0,0,0,.243-.454L5.83.891,6.309.75a.5.5,0,0,1,.626.332l1.239,4.1a.479.479,0,0,1-.036.369.5.5,0,0,1-.3.241l-.483.142-.143-.474a.364.364,0,0,0-.7.211l.142.469-1.916.565a.8.8,0,0,0-.542.546,8.954,8.954,0,0,0,.191,4.852,9.041,9.041,0,0,0,2.531,4.161.791.791,0,0,0,.752.164l1.92-.566.143.474a.364.364,0,1,0,.7-.211l-.142-.469.478-.141a.505.505,0,0,1,.627.332l1.239,4.1a.479.479,0,0,1-.038.372Zm.056-2.835L12.1,15.64a1.233,1.233,0,0,0-1.53-.82l-3.1.913a.073.073,0,0,1-.065-.012c-.051-.045-.109-.1-.177-.164L11.658,11.3l.752.7a1.462,1.462,0,0,0,1.983,0l.736-.683,6.415,6.157a.724.724,0,0,1-.142.016Z" transform="translate(-0.999 -0.001)"/><path class="a" d="M26.364,14.729h5.829a.364.364,0,0,0,0-.729H26.364a.364.364,0,0,0,0,.729Z" transform="translate(-16.892 -8.9)"/><path class="a" d="M55.364,22a.364.364,0,0,0-.364.364v5.1a.364.364,0,0,0,.729,0v-5.1A.364.364,0,0,0,55.364,22Z" transform="translate(-35.326 -13.985)"/></g></g></svg>