<svg xmlns="http://www.w3.org/2000/svg" width="19.199" height="24.8" viewBox="0 0 19.199 24.8"><defs><style>.a{fill:#c91f25;}</style></defs><path class="a" d="M20.8,19.669V13.31c0-3.9-1.968-7.173-5.4-8.038V4.408a1.8,1.8,0,1,0-3.6,0v.865c-3.444.865-5.4,4.121-5.4,8.038v6.359L4,22.212v1.272H23.2V22.212Zm-6,0H12.4V17.125h2.4Zm0-5.087H12.4V9.495h2.4ZM13.6,27.3A2.482,2.482,0,0,0,16,24.756H11.2A2.474,2.474,0,0,0,13.6,27.3Z" transform="translate(-4 -2.5)"/><rect class="a" width="7" height="13" transform="translate(6.932 6)"/></svg>