<svg xmlns="http://www.w3.org/2000/svg" width="20.571" height="23.246" viewBox="0 0 20.571 23.246"><defs></defs><g transform="translate(0.252 0.257)"><path class="a" d="M39.536,5.743h0s0,0,0,0,0-.031,0-.046,0-.015,0-.023,0-.018,0-.026,0-.019-.007-.029l0-.019c0-.01-.007-.02-.01-.029L39.5,5.548c0-.009-.008-.018-.012-.026L39.476,5.5l-.012-.022-.013-.022-.012-.017-.018-.024L39.409,5.4l-.022-.024-.013-.013-.023-.021-.02-.015-.019-.015-.038-.023,0,0h0l0,0L29.749.064a.515.515,0,0,0-.5,0l-9.52,5.227-.009.006-.01.005-.021.015-.026.018-.028.024-.023.021-.025.028-.019.023c-.008.01-.015.021-.022.032s-.011.016-.015.024-.012.024-.018.037-.008.015-.011.023-.011.031-.016.046,0,.011-.006.017a.525.525,0,0,0-.013.066c0,.005,0,.01,0,.015s0,.033,0,.05v8.715a.514.514,0,1,0,1.029,0V6.592l1.854.97v2.78a.514.514,0,1,0,1.029,0V8.213l2.611,1.4v4.154l-2.882-1.545a.514.514,0,0,0-.486.907l3.64,1.951a.514.514,0,0,0,.757-.453V10l1.969,1.03V21.379l-8.768-4.557a.514.514,0,0,0-.474.913l9.52,4.947.019.009.025.011.039.014.024.007.044.009.021,0a.51.51,0,0,0,.065,0h0a.523.523,0,0,0,.065,0l.021,0,.044-.009.024-.007.039-.014.025-.011.019-.009,9.52-4.947a.515.515,0,0,0,.277-.456V5.743ZM24.083,7.294l3.55-1.868L30,6.665,26.646,8.626Zm5.933,14.085V11.035L36.8,7.482a.514.514,0,0,0-.477-.912l-6.795,3.555-1.808-.939,3.6-2.1a.514.514,0,0,0-.021-.9l-3.434-1.8a.514.514,0,0,0-.478,0L22.971,6.716l-1.9-.987L29.5,1.1l9.006,4.945v10.92Z" transform="translate(-19.466 -0.001)"/><path class="a" d="M212.652,226.076l-4.064,2.107a.514.514,0,1,0,.474.913l4.064-2.107a.514.514,0,1,0-.474-.913Z" transform="translate(-195.357 -210.515)"/><path class="a" d="M212.652,191.55l-4.064,2.107a.514.514,0,1,0,.474.913l4.064-2.107a.514.514,0,1,0-.474-.913Z" transform="translate(-195.357 -178.357)"/><path class="a" d="M236.254,157.023l-2.326,1.206a.514.514,0,1,0,.474.913l2.326-1.206a.514.514,0,1,0-.474-.913Z" transform="translate(-218.959 -146.198)"/></g></svg>