<svg xmlns="http://www.w3.org/2000/svg" width="16.189" height="22.919" viewBox="0 0 16.189 22.919"><defs></defs><g transform="translate(0.15 0.15)"><path class="a" d="M84.192,0a7.953,7.953,0,0,0-7.944,7.944c0,5.474,7.133,14.074,7.436,14.437a.662.662,0,0,0,1.016,0c.3-.363,7.436-8.964,7.436-14.437A7.953,7.953,0,0,0,84.192,0Zm0,20.9c-1.63-2.072-6.62-8.756-6.62-12.956a6.62,6.62,0,1,1,13.241,0C90.813,12.144,85.823,18.829,84.192,20.9Z" transform="translate(-76.248)"/><path class="a" d="M146.178,64.634h-.717a3.982,3.982,0,0,0-3.255-3.255v-.718a.662.662,0,1,0-1.324,0v.718a3.982,3.982,0,0,0-3.255,3.255h-.718a.662.662,0,0,0,0,1.324h.718a3.982,3.982,0,0,0,3.255,3.255v.718a.662.662,0,0,0,1.324,0v-.718a3.982,3.982,0,0,0,3.255-3.255h.717a.662.662,0,0,0,0-1.324Zm-4.634,3.31a2.648,2.648,0,1,1,2.648-2.648A2.651,2.651,0,0,1,141.544,67.944Z" transform="translate(-133.6 -57.352)"/></g></svg>