<svg xmlns="http://www.w3.org/2000/svg" width="22.693" height="21.718" viewBox="0 0 22.693 21.718">
  <g id="user" transform="translate(0.15 0.15)">
    <path id="Path_65" data-name="Path 65" d="M85.409,9.454a5,5,0,1,0-5-5A5,5,0,0,0,85.409,9.454Zm0-9.052a4.053,4.053,0,1,1-4.053,4.053A4.053,4.053,0,0,1,85.409.4Zm0,0" transform="translate(-77.365 0.543)" stroke="#000" stroke-width="0.3"/>
    <path id="Path_66" data-name="Path 66" d="M20.009,285.5a.471.471,0,0,0-.667,0l-1.234,1.234-3.045,3.046A8.042,8.042,0,0,0,0,293.7a.474.474,0,0,0,.473.473H12.206l-.388,1.159a.466.466,0,0,0,.114.482.476.476,0,0,0,.336.137.563.563,0,0,0,.151-.024l3.362-1.121s0,0,.009,0a.159.159,0,0,0,.043-.019.016.016,0,0,0,.009,0l.047-.028c.014-.009.028-.024.042-.033s.01,0,.01-.009.014-.01.019-.019l5.06-5.046,1.234-1.234a.471.471,0,0,0,0-.667Zm-4.37,8.186-1.575-1.575,4.374-4.374,1.575,1.575ZM.965,293.22a7.1,7.1,0,0,1,13.4-2.747l-1.305,1.305-.019.019s0,.01-.009.01a.637.637,0,0,0-.062.095.016.016,0,0,1,0,.009c0,.014-.014.029-.019.043s0,0,0,.01l-.421,1.263H.965Zm12.641-.236,1.159,1.159-1.74.582Zm7.079-4.346-1.575-1.575.563-.563,1.575,1.575Zm0,0" transform="translate(0 -274.531)" stroke="#000" stroke-width="0.3"/>
  </g>
</svg>
